<?xml version="1.0" encoding="UTF-8"?>
<svg version="1.1" xmlns="http://www.w3.org/2000/svg" width="155" height="150">
<path d="M0 0 C5.0861153 4.23148117 7.40633129 9.22801916 8.5 15.6875 C9.12321487 24.75527639 5.09360125 32.40488034 -0.4375 39.3125 C-4.9792328 44.44829911 -9.99242377 48.67944877 -15.5546875 52.671875 C-17.5970988 54.45156949 -18.48544831 55.79178284 -19.4375 58.3125 C-19.68798636 61.43799017 -19.68798636 61.43799017 -19.4375 64.3125 C-18.25907341 65.70923677 -18.25907341 65.70923677 -14.9375 65.5625 C-11.70199803 65.53853332 -9.2738514 64.99897379 -6.26953125 63.82421875 C-1.32676026 62.11361139 3.17389747 61.81246371 8.375 61.875 C9.68223022 61.88418457 9.68223022 61.88418457 11.01586914 61.89355469 C19.45977074 62.09715428 26.4444792 63.89013482 33.75 68.1875 C36.16854304 71.02303322 36.71195487 72.57612833 36.5625 76.3125 C34.57494744 79.79475672 32.43305545 82.02231485 28.5625 83.3125 C22.743203 83.75538455 17.22523469 83.30389892 11.5 82.25 C3.21460549 80.87525191 -4.95379903 81.60090635 -13.28735352 82.38256836 C-21.33605018 82.94061293 -21.33605018 82.94061293 -24.58666992 81.08691406 C-26.3828125 79.5 -26.3828125 79.5 -27.98120117 77.83105469 C-34.46097965 71.07426976 -46.00201544 69.39150986 -54.875 69.0625 C-61.45746002 68.60538472 -65.68855455 66.91782815 -70.4375 62.3125 C-76.82044955 54.48513299 -78.70370505 48.29518954 -78.4375 38.3125 C-75.1375 38.9725 -71.8375 39.6325 -68.4375 40.3125 C-68.52 39.054375 -68.6025 37.79625 -68.6875 36.5 C-68.65793695 27.09895114 -64.54437938 19.22872484 -58.4375 12.3125 C-57.91285156 11.70664063 -57.38820313 11.10078125 -56.84765625 10.4765625 C-43.27108244 -4.15419234 -17.58797579 -12.02008774 0 0 Z " fill="#ED7465" transform="translate(78.4375,52.6875)"/>
<path d="M0 0 C2.48015104 1.36758161 4.56283219 2.86884479 6.69140625 4.734375 C9.51494631 7.06167981 11.40627632 7.97684206 14.87109375 8.97265625 C26.6516714 13.02173165 33.21670289 21.86505863 39.79296875 32 C40.94939921 35.16838346 40.86103677 38.11362496 40.87109375 41.47265625 C40.88785156 42.75914063 40.90460938 44.045625 40.921875 45.37109375 C40.44525051 50.26033853 39.03781167 53.61843833 35.55859375 57.09765625 C33.50692969 57.44106783 31.44038922 57.69738124 29.37109375 57.91015625 C14.81843095 59.85546118 -0.00546191 65.36665276 -11.640625 74.54296875 C-19.61556766 80.76682613 -25.50940624 82.17031675 -35.3125 82.765625 C-38.69603143 82.97523778 -41.56315087 83.57597183 -44.75390625 84.78515625 C-48.35312905 86.06623555 -49.89747138 86.35518153 -53.44140625 85.09765625 C-52.99558579 80.40002951 -51.36164138 78.66450203 -47.81640625 75.66015625 C-46.91019531 74.87511719 -46.00398438 74.09007813 -45.0703125 73.28125 C-43.55451228 72.02221237 -42.02681402 70.77665514 -40.46875 69.5703125 C-32.41208766 63.23876692 -27.71325805 54.35092762 -25.69140625 44.41015625 C-25.09227818 39.18047902 -26.30943627 34.1868436 -27.44140625 29.09765625 C-26.88710937 29.25492188 -26.3328125 29.4121875 -25.76171875 29.57421875 C-18.16954228 31.28693196 -11.53511618 30.51544695 -4.7421875 26.734375 C-0.48195082 23.70374823 3.20848036 19.79788302 5.55859375 15.09765625 C4.64980469 15.1440625 3.74101563 15.19046875 2.8046875 15.23828125 C-13.68593556 15.71185812 -31.97282176 11.54717374 -44.44140625 0.09765625 C-46.94140625 -2.77734375 -46.94140625 -2.77734375 -48.44140625 -4.90234375 C-47.45369083 -7.59611308 -46.84101624 -8.69360293 -44.2578125 -10.04296875 C-30.01420162 -14.38914683 -12.56168437 -6.52359568 0 0 Z " fill="#ED7465" transform="translate(114.44140625,29.90234375)"/>
<path d="M0 0 C2.30372834 1.11039706 4.1896866 2.42671284 6.203125 4.00390625 C6.90953125 4.55175781 7.6159375 5.09960938 8.34375 5.6640625 C8.87484375 6.08558594 9.4059375 6.50710937 9.953125 6.94140625 C8.58111059 12.1245718 5.2494238 15.00545857 0.953125 17.94140625 C-3.80970865 20.54332463 -8.69364049 20.30869943 -13.984375 20.31640625 C-14.86544922 20.34089844 -15.74652344 20.36539063 -16.65429688 20.390625 C-22.25271756 20.41578644 -25.70478591 19.83957568 -30.046875 15.94140625 C-31.234375 12.44140625 -31.234375 12.44140625 -31.046875 8.94140625 C-28.48280629 6.23488928 -26.57499751 5.11744709 -23.046875 3.94140625 C-19.7010314 3.98115169 -16.36838401 4.06461296 -13.02734375 4.24414062 C-7.36898443 4.38638988 -4.63164596 -0.13258529 0 0 Z " fill="#ED7465" transform="translate(45.046875,130.05859375)"/>
<path d="M0 0 C10.215471 0.26937347 18.28334246 9.55354355 25 16.375 C31 23.3023743 31 23.3023743 31 26.375 C31.66 26.375 32.32 26.375 33 26.375 C32.505 27.86 32.505 27.86 32 29.375 C31.175 28.92769531 30.35 28.48039062 29.5 28.01953125 C22.87658606 24.55258801 16.66371828 21.87286976 9.4375 19.9375 C4.91120282 18.66316259 1.29749725 17.62547279 -1.4375 13.5625 C-3.26080125 9.58301263 -3.84723857 5.72870067 -4 1.375 C-3 0.375 -3 0.375 0 0 Z " fill="#ED7465" transform="translate(86,-0.375)"/>
</svg>
